<svg width="380" height="134" viewBox="0 0 380 134" fill="none" xmlns="http://www.w3.org/2000/svg">
<g filter="url(#filter0_b_3192_180)">
<path d="M0 30V134H380V114.64C380 107.387 377.372 100.379 372.603 94.9146L329 44.9524L296.923 9.78363C291.239 3.55127 283.193 0 274.758 0H30C13.4315 0 0 13.4315 0 30Z" fill="white"/>
<path d="M0.5 133.5V30C0.5 13.7076 13.7076 0.5 30 0.5H274.758C283.053 0.5 290.964 3.99208 296.554 10.1206L328.623 45.2812L328.631 45.2894L372.226 95.2434C376.916 100.617 379.5 107.508 379.5 114.64V133.5H0.5Z" stroke="white"/>
</g>
<defs>
<filter id="filter0_b_3192_180" x="-15" y="-15" width="410" height="164" filterUnits="userSpaceOnUse" color-interpolation-filters="sRGB">
<feFlood flood-opacity="0" result="BackgroundImageFix"/>
<feGaussianBlur in="BackgroundImageFix" stdDeviation="7.5"/>
<feComposite in2="SourceAlpha" operator="in" result="effect1_backgroundBlur_3192_180"/>
<feBlend mode="normal" in="SourceGraphic" in2="effect1_backgroundBlur_3192_180" result="shape"/>
</filter>
</defs>
</svg>
